<?xml version="1.0" encoding="utf-8"?>
<svg viewBox="0 0 500 500" xmlns="http://www.w3.org/2000/svg">
  <circle class="cls-1" cx="178.531" cy="179.204" r="178.06" style="fill: rgb(79, 81, 86);" transform="matrix(1.398203, 0, 0, 1.396616, -0.187557, -0.453728)"/>
  <path class="cls-2" d="M 115.613 313.33 C 113.953 286.198 112.043 264.48 109.88 248.177 C 122.154 253.851 134.959 258.299 148.107 261.459 C 157.731 263.754 167.576 265.004 177.469 265.188 C 188.589 265.188 197.446 263.564 204.035 260.314 C 210.625 257.064 213.916 252.256 213.907 245.887 C 213.912 243.778 213.592 241.682 212.956 239.672 C 212.085 237.274 210.854 235.024 209.307 232.996 C 207.058 230.014 204.488 227.288 201.644 224.868 L 165.627 193.556 C 157.237 186.415 151.361 181.256 147.995 178.081 C 142.096 172.604 136.796 166.519 132.182 159.925 C 128.581 154.677 125.8 148.913 123.932 142.831 C 122.183 136.842 121.312 130.633 121.346 124.395 C 121.351 116.601 122.742 108.869 125.456 101.561 C 128.309 93.907 132.488 86.817 137.802 80.611 C 143.906 73.661 151.31 67.967 159.6 63.852 C 168.725 59.126 178.54 55.869 188.683 54.201 C 199.238 52.467 209.92 51.608 220.618 51.632 C 244.264 51.851 267.835 54.344 291.004 59.076 C 291.395 67.874 291.861 75.933 292.402 83.251 C 292.943 90.569 294.154 103.4 296.037 121.742 C 285.655 117.463 274.886 114.189 263.878 111.965 C 255.63 110.267 247.243 109.333 238.823 109.172 C 228.867 109.172 220.608 111.034 214.046 114.759 C 207.485 118.484 204.221 123.069 204.259 128.515 C 204.258 131.074 204.776 133.606 205.783 135.959 C 207.254 139.067 209.186 141.934 211.516 144.465 C 214.939 148.308 218.649 151.884 222.617 155.163 C 227.204 159.055 234.408 164.818 244.234 172.453 L 258.006 183.347 C 262.6 187.136 267.001 191.154 271.191 195.385 C 275.602 199.743 279.695 204.41 283.439 209.352 C 286.471 213.287 289.129 217.495 291.381 221.921 C 293.178 225.611 294.556 229.489 295.492 233.485 C 296.434 237.608 296.903 241.826 296.89 246.055 C 296.824 269.565 284.97 291.48 265.319 304.419 C 255.226 311.117 243.975 315.881 232.139 318.469 C 219.604 321.191 206.809 322.535 193.982 322.477 C 173.233 322.366 147.11 319.317 115.613 313.33 Z" style="fill: rgb(255, 255, 255);"/>
  <path class="cls-3" d="M 207.866 439.095 C 206.207 411.954 204.291 390.237 202.12 373.943 C 214.395 379.612 227.199 384.06 240.347 387.225 C 249.972 389.518 259.815 390.768 269.709 390.954 C 280.829 390.954 289.685 389.329 296.275 386.079 C 302.864 382.829 306.156 378.021 306.146 371.652 C 306.154 369.543 305.829 367.446 305.181 365.437 C 304.321 363.038 303.095 360.785 301.546 358.762 C 299.293 355.783 296.725 353.058 293.884 350.633 L 257.824 319.251 C 249.435 312.156 243.576 307.035 240.249 303.888 C 234.35 298.411 229.049 292.326 224.435 285.732 C 220.828 280.488 218.047 274.723 216.186 268.638 C 214.437 262.649 213.565 256.44 213.599 250.203 C 213.605 242.408 214.996 234.676 217.71 227.368 C 220.556 219.713 224.736 212.62 230.056 206.419 C 236.156 199.464 243.563 193.771 251.854 189.659 C 260.974 184.935 270.784 181.678 280.922 180.009 C 291.483 178.274 302.17 177.415 312.871 177.439 C 336.518 177.658 360.089 180.151 383.257 184.883 C 383.639 193.682 384.106 201.74 384.655 209.058 C 385.205 216.377 386.417 229.207 388.29 247.549 C 377.907 243.271 367.14 239.997 356.132 237.773 C 347.878 236.074 339.486 235.139 331.062 234.979 C 321.117 234.979 312.862 236.841 306.3 240.566 C 299.738 244.291 296.475 248.876 296.512 254.323 C 296.518 256.883 297.041 259.415 298.05 261.767 C 299.521 264.874 301.454 267.741 303.783 270.272 C 307.202 274.118 310.914 277.695 314.885 280.97 C 319.471 284.862 326.672 290.625 336.487 298.26 L 350.259 309.154 C 354.862 312.939 359.267 316.957 363.458 321.193 C 367.87 325.55 371.962 330.218 375.707 335.159 C 378.738 339.094 381.396 343.302 383.648 347.728 C 385.445 351.418 386.824 355.297 387.759 359.292 C 388.671 363.419 389.115 367.636 389.087 371.862 C 389.034 395.372 377.185 417.291 357.53 430.226 C 347.441 436.926 336.188 441.686 324.351 444.262 C 311.817 446.994 299.022 448.343 286.194 448.285 C 265.416 448.145 239.308 445.082 207.866 439.095 Z" style="fill: rgb(214, 112, 40);"/>
</svg>